<svg width="27" height="27" viewBox="0 0 27 27" fill="none" xmlns="http://www.w3.org/2000/svg">
<path d="M8.37305 15.6973C10.2285 15.2578 11.9375 15.0381 13.5 15.0381C15.0625 15.0381 16.7715 15.2578 18.627 15.6973C20.4824 16.1367 22.167 16.8691 23.6807 17.8945C25.2432 18.9199 26.0244 20.0674 26.0244 21.3369V26.0244H0.975586V21.3369C0.975586 20.0674 1.73242 18.9199 3.24609 17.8945C4.80859 16.8691 6.51758 16.1367 8.37305 15.6973ZM9.10547 2.87988C10.3262 1.61035 11.791 0.975586 13.5 0.975586C15.209 0.975586 16.6738 1.61035 17.8945 2.87988C19.1152 4.10059 19.7256 5.56543 19.7256 7.27441C19.7256 8.9834 19.1152 10.4482 17.8945 11.6689C16.6738 12.8896 15.209 13.5 13.5 13.5C11.791 13.5 10.3262 12.8896 9.10547 11.6689C7.88477 10.4482 7.27441 8.9834 7.27441 7.27441C7.27441 5.56543 7.88477 4.10059 9.10547 2.87988ZM19.8721 19.2861C17.7725 18.4561 15.6484 18.041 13.5 18.041C11.3516 18.041 9.22754 18.4561 7.12793 19.2861C5.02832 20.0674 3.97852 20.751 3.97852 21.3369V23.0215H23.0215V21.3369C23.0215 20.751 21.9717 20.0674 19.8721 19.2861ZM15.8438 4.93066C15.209 4.2959 14.4277 3.97852 13.5 3.97852C12.5723 3.97852 11.791 4.2959 11.1562 4.93066C10.5215 5.56543 10.2041 6.34668 10.2041 7.27441C10.2041 8.20215 10.5215 8.9834 11.1562 9.61816C11.791 10.2041 12.5723 10.4971 13.5 10.4971C14.4277 10.4971 15.209 10.2041 15.8438 9.61816C16.4785 8.9834 16.7959 8.20215 16.7959 7.27441C16.7959 6.34668 16.4785 5.56543 15.8438 4.93066Z" fill="#666666"/>
</svg>
